<?xml version="1.0" encoding="UTF-8" standalone="no"?>
<!-- Created with Inkscape (http://www.inkscape.org/) -->

<svg
   xmlns:dc="http://purl.org/dc/elements/1.1/"
   xmlns:cc="http://creativecommons.org/ns#"
   xmlns:rdf="http://www.w3.org/1999/02/22-rdf-syntax-ns#"
   xmlns:svg="http://www.w3.org/2000/svg"
   xmlns="http://www.w3.org/2000/svg"
   xmlns:sodipodi="http://sodipodi.sourceforge.net/DTD/sodipodi-0.dtd"
   xmlns:inkscape="http://www.inkscape.org/namespaces/inkscape"
   width="100"
   height="100"
   viewBox="0 0 26.458333 26.458334"
   version="1.1"
   id="svg4244"
   inkscape:version="0.92.4 (unknown)"
   sodipodi:docname="spinner.svg">
  <defs
     id="defs4238" />
  <sodipodi:namedview
     id="base"
     pagecolor="#ffffff"
     bordercolor="#666666"
     borderopacity="1.0"
     inkscape:pageopacity="0.0"
     inkscape:pageshadow="2"
     inkscape:zoom="3.959798"
     inkscape:cx="51.554493"
     inkscape:cy="89.194782"
     inkscape:document-units="mm"
     inkscape:current-layer="layer1"
     showgrid="false"
     units="px"
     inkscape:pagecheckerboard="true"
     inkscape:window-width="1920"
     inkscape:window-height="1027"
     inkscape:window-x="1920"
     inkscape:window-y="0"
     inkscape:window-maximized="1" />
  <metadata
     id="metadata4241">
    <rdf:RDF>
      <cc:Work
         rdf:about="">
        <dc:format>image/svg+xml</dc:format>
        <dc:type
           rdf:resource="http://purl.org/dc/dcmitype/StillImage" />
        <dc:title></dc:title>
      </cc:Work>
    </rdf:RDF>
  </metadata>
  <g
     inkscape:label="Layer 1"
     inkscape:groupmode="layer"
     id="layer1"
     transform="translate(0,-270.54165)">
    <g
       id="g4832"
       transform="matrix(0.75059494,0,0,0.75059494,50.315083,115.91755)"
       style="fill:#e1e1e1;fill-opacity:1">
      <path
         id="path4826"
         d="m -52.592553,240.27652 c -7.633496,-1.76315 -12.779917,-7.57801 -13.487245,-15.23903 -0.167413,-1.81324 -0.129464,-2.06247 0.44299,-2.90918 0.879942,-1.30151 2.369467,-1.8035 3.697113,-1.24596 1.394252,0.5855 1.838421,1.44102 2.102912,4.05044 0.803116,7.92342 6.551133,13.62 13.715965,13.59322 3.415147,-0.0127 6.26323,-1.15551 9.008735,-3.61462 l 1.717447,-1.53829 -1.145945,1.31841 c -2.11102,2.42873 -5.088755,4.32996 -8.274238,5.28297 -2.016006,0.60314 -5.832491,0.75134 -7.777734,0.30204 z"
         style="fill:#e1e1e1;stroke-width:0.26458332;fill-opacity:1"
         inkscape:connector-curvature="0" />
      <path
         id="path4822"
         d="m -36.849844,226.43817 c -1.078249,-0.55121 -1.851083,-1.91563 -1.851673,-3.26908 -0.0016,-3.48049 -1.77123,-7.56805 -4.448742,-10.27537 -5.287063,-5.34593 -13.07729,-5.37393 -18.680571,-0.0672 l -1.300778,1.23195 0.985321,-1.23651 c 1.8206,-2.28474 5.142501,-4.39861 8.495401,-5.40602 2.164122,-0.65022 6.556499,-0.64344 8.73125,0.0135 7.083838,2.1398 11.565507,7.55011 12.426209,15.00103 0.37015,3.2043 -1.879523,5.27387 -4.356417,4.00766 z"
         style="fill:#e1e1e1;stroke-width:0.26458332;fill-opacity:1"
         inkscape:connector-curvature="0" />
    </g>
  </g>
</svg>
